<?xml version="1.0" encoding="UTF-8" standalone="no"?><!DOCTYPE svg PUBLIC "-//W3C//DTD SVG 1.1//EN" "http://www.w3.org/Graphics/SVG/1.1/DTD/svg11.dtd"><svg width="100%" height="100%" viewBox="0 0 100 100" version="1.1" xmlns="http://www.w3.org/2000/svg" xmlns:xlink="http://www.w3.org/1999/xlink" xml:space="preserve" xmlns:serif="http://www.serif.com/" style="fill-rule:evenodd;clip-rule:evenodd;stroke-linejoin:round;stroke-miterlimit:1.41421;"><rect id="info" x="0" y="0" width="100" height="100" style="fill:none;"/><path d="M50,1c27.044,0 49,21.956 49,49c0,27.044 -21.956,49 -49,49c-27.044,0 -49,-21.956 -49,-49c0,-27.044 21.956,-49 49,-49Zm0,12c20.421,0 37,16.579 37,37c0,20.421 -16.579,37 -37,37c-20.421,0 -37,-16.579 -37,-37c0,-20.421 16.579,-37 37,-37Zm4.146,27.185c2.289,0 4.147,1.858 4.147,4.146l0,32.969c0,2.288 -1.858,4.146 -4.147,4.146l-8.292,0c-2.289,0 -4.147,-1.858 -4.147,-4.146l0,-32.969c0,-2.288 1.858,-4.146 4.147,-4.146l8.292,0Zm-4.146,-22.739c4.828,0 8.747,3.92 8.747,8.747c0,4.828 -3.919,8.748 -8.747,8.748c-4.828,0 -8.747,-3.92 -8.747,-8.748c0,-4.827 3.919,-8.747 8.747,-8.747Z" style="fill:#9f9f9f;"/></svg>