<?xml version="1.0" encoding="UTF-8" standalone="no"?><!DOCTYPE svg PUBLIC "-//W3C//DTD SVG 1.1//EN" "http://www.w3.org/Graphics/SVG/1.1/DTD/svg11.dtd"><svg width="100%" height="100%" viewBox="0 0 120 100" version="1.1" xmlns="http://www.w3.org/2000/svg" xmlns:xlink="http://www.w3.org/1999/xlink" xml:space="preserve" xmlns:serif="http://www.serif.com/" style="fill-rule:evenodd;clip-rule:evenodd;stroke-linejoin:round;stroke-miterlimit:1.41421;"><rect id="open" x="0" y="0" width="120" height="100" style="fill:none;"/><path d="M59.256,13.705c-8.608,2.891 -16.411,7.342 -22.942,13.125l-15.493,0c-1.061,0 -2.079,0.421 -2.829,1.171c-0.75,0.75 -1.171,1.768 -1.171,2.829c0,10.434 0,38.394 0,48.829c0,2.209 1.79,4 4,4c13.188,0 55.204,0 68.392,0c2.209,0 4,-1.791 4,-4l0,-11.132c0.612,-0.336 1.196,-0.731 1.746,-1.187l11.349,-9.778c-0.004,9.479 -0.036,18.957 -0.095,28.436c-0.107,5.583 -4.938,10.551 -10.661,10.66c-27.023,0.169 -54.047,0.169 -81.07,0c-5.583,-0.107 -10.552,-4.938 -10.661,-10.66c-0.13,-20.502 -0.13,-41.005 0,-61.507c0.107,-5.582 4.848,-10.55 10.661,-10.661c14.924,-0.093 29.849,-0.135 44.774,-0.125Zm25.294,7.163l0,-13.698c0,-0.782 0.455,-1.492 1.166,-1.818c0.711,-0.326 1.547,-0.208 2.139,0.303c7.126,6.139 23.729,20.443 29.167,25.128c0.441,0.38 0.694,0.933 0.694,1.515c0,0.582 -0.253,1.135 -0.694,1.515c-5.438,4.685 -22.041,18.989 -29.167,25.128c-0.592,0.51 -1.428,0.628 -2.139,0.303c-0.711,-0.326 -1.166,-1.037 -1.166,-1.819l0,-14.19c-0.297,-0.046 -0.599,-0.103 -0.904,-0.17c-24.129,-5.35 -56.485,18.783 -56.485,18.783c0,0 9.282,-41.759 57.389,-40.98l0,0Z" style="fill:#969696;fill-rule:nonzero;"/></svg>