<?xml version="1.0" encoding="UTF-8" standalone="no"?><!DOCTYPE svg PUBLIC "-//W3C//DTD SVG 1.1//EN" "http://www.w3.org/Graphics/SVG/1.1/DTD/svg11.dtd"><svg width="100%" height="100%" viewBox="0 0 120 100" version="1.1" xmlns="http://www.w3.org/2000/svg" xmlns:xlink="http://www.w3.org/1999/xlink" xml:space="preserve" xmlns:serif="http://www.serif.com/" style="fill-rule:evenodd;clip-rule:evenodd;stroke-linejoin:round;stroke-miterlimit:1.41421;"><rect id="snapshot" x="0" y="0" width="120" height="100" style="fill:none;"/><path d="M100.345,92l-80.5,0c-10.348,0 -18.75,-8.402 -18.75,-18.75l0,-37.5c0,-10.348 8.402,-18.75 18.75,-18.75l7.75,0l0,-1.174c0,-4.319 3.507,-7.826 7.827,-7.826l49.347,0c4.32,0 7.826,3.507 7.826,7.826l0,1.174l7.75,0c10.349,0 18.75,8.402 18.75,18.75l0,37.5c0,10.348 -8.401,18.75 -18.75,18.75Zm-40.345,-68.015c16.014,0 29.015,13.001 29.015,29.015c0,16.014 -13.001,29.015 -29.015,29.015c-16.014,0 -29.015,-13.001 -29.015,-29.015c0,-16.014 13.001,-29.015 29.015,-29.015Z" style="fill:#9f9f9f;"/></svg>